# Blender v2.79 (sub 0) OBJ File: ''
# www.blender.org
mtllib bomber.mtl
o Sphere.001
v 0.000000 -0.309017 0.951056
v 0.000000 -0.809017 0.587785
v -0.181636 0.951057 0.250000
v -0.345492 0.809017 0.475528
v -0.475528 0.587785 0.654508
v -0.559017 0.309017 0.769421
v -0.587785 -0.000000 0.809017
v -0.559017 -0.309017 0.769421
v -0.475528 -0.587785 0.654508
v -0.345492 -0.809017 0.475528
v -0.181636 -0.951057 0.250000
v -0.293893 0.951057 0.095491
v -0.559017 0.809017 0.181635
v -0.769421 0.587785 0.250000
v -0.904509 0.309017 0.293892
v -0.951057 -0.000000 0.309017
v -0.904509 -0.309017 0.293892
v -0.769421 -0.587785 0.250000
v -0.559017 -0.809017 0.181635
v -0.293893 -0.951057 0.095491
v -0.293893 0.951057 -0.095492
v -0.559017 0.809017 -0.181636
v -0.769421 0.587785 -0.250000
v -0.904509 0.309017 -0.293893
v -0.951057 -0.000000 -0.309017
v -0.904509 -0.309017 -0.293893
v -0.769421 -0.587785 -0.250000
v -0.559017 -0.809017 -0.181636
v -0.293893 -0.951057 -0.095492
v -0.181636 0.951057 -0.250001
v -0.345492 0.809017 -0.475529
v -0.475528 0.587785 -0.654509
v -0.559017 0.309017 -0.769421
v -0.587785 -0.000000 -0.809017
v -0.559017 -0.309017 -0.769421
v -0.475528 -0.587785 -0.654509
v -0.345492 -0.809017 -0.475529
v -0.181636 -0.951057 -0.250000
v -0.000000 0.951057 -0.309018
v -0.000000 0.809017 -0.587786
v 0.000000 0.587785 -0.809018
v -0.000000 0.309017 -0.951057
v -0.000000 -0.000000 -1.000001
v 0.000000 -0.309017 -0.951057
v 0.000000 -0.587785 -0.809018
v -0.000000 -0.809017 -0.587786
v -0.000000 -0.951057 -0.309017
v 0.000000 1.000000 -0.000001
v 0.181636 0.951057 -0.250001
v 0.345492 0.809017 -0.475529
v 0.475529 0.587785 -0.654509
v 0.559017 0.309017 -0.769422
v 0.587785 -0.000000 -0.809018
v 0.559017 -0.309017 -0.769421
v 0.475529 -0.587785 -0.654509
v 0.345492 -0.809017 -0.475529
v 0.181636 -0.951057 -0.250000
v 0.293893 0.951057 -0.095492
v 0.559017 0.809017 -0.181636
v 0.769421 0.587785 -0.250000
v 0.904509 0.309017 -0.293893
v 0.951057 -0.000000 -0.309018
v 0.904509 -0.309017 -0.293893
v 0.769421 -0.587785 -0.250000
v 0.559017 -0.809017 -0.181636
v 0.293893 -0.951057 -0.095492
v 0.293893 0.951057 0.095491
v 0.559017 0.809017 0.181635
v 0.769421 0.587785 0.250000
v 0.904509 0.309017 0.293892
v 0.951057 -0.000000 0.309017
v 0.904509 -0.309017 0.293892
v 0.769421 -0.587785 0.250000
v 0.559017 -0.809017 0.181635
v 0.293893 -0.951057 0.095491
v 0.181636 0.951057 0.250000
v 0.345492 0.809017 0.475528
v 0.475529 0.587785 0.654509
v 0.559017 0.309017 0.769421
v 0.587786 -0.000000 0.809017
v 0.559017 -0.309017 0.769421
v 0.475529 -0.587785 0.654509
v 0.345492 -0.809017 0.475528
v 0.181636 -0.951057 0.250000
v 0.000000 0.951057 0.309017
v 0.000000 0.809017 0.587785
v 0.000000 0.587785 0.809017
v 0.000000 0.309017 0.951057
v 0.000000 -0.000000 1.000000
v 0.000000 -0.587785 0.809017
v 0.000000 -0.951057 0.309017
v 0.000000 -1.000000 -0.000000
vt 0.650000 0.000000
vt 0.700000 0.100000
vt 0.600000 0.100000
vt 0.700000 0.400000
vt 0.600000 0.300000
vt 0.700000 0.300000
vt 0.700000 0.700000
vt 0.600000 0.600000
vt 0.700000 0.600000
vt 0.700000 0.900000
vt 0.650000 1.000000
vt 0.600000 0.900000
vt 0.700000 0.200000
vt 0.600000 0.200000
vt 0.600000 0.500000
vt 0.700000 0.500000
vt 0.600000 0.800000
vt 0.700000 0.800000
vt 0.600000 0.400000
vt 0.600000 0.700000
vt 0.500000 0.300000
vt 0.500000 0.700000
vt 0.500000 0.600000
vt 0.550000 1.000000
vt 0.500000 0.900000
vt 0.500000 0.200000
vt 0.500000 0.500000
vt 0.500000 0.800000
vt 0.500000 0.100000
vt 0.500000 0.400000
vt 0.550000 0.000000
vt 0.400000 0.700000
vt 0.450000 0.000000
vt 0.400000 0.100000
vt 0.400000 0.300000
vt 0.400000 0.600000
vt 0.450000 1.000000
vt 0.400000 0.900000
vt 0.400000 0.200000
vt 0.400000 0.500000
vt 0.400000 0.800000
vt 0.400000 0.400000
vt 0.300000 0.100000
vt 0.300000 0.500000
vt 0.300000 0.400000
vt 0.300000 0.800000
vt 0.300000 0.700000
vt 0.350000 0.000000
vt 0.300000 0.300000
vt 0.300000 0.600000
vt 0.350000 1.000000
vt 0.300000 0.900000
vt 0.300000 0.200000
vt 0.200000 0.500000
vt 0.200000 0.800000
vt 0.200000 0.100000
vt 0.200000 0.400000
vt 0.200000 0.700000
vt 0.250000 0.000000
vt 0.200000 0.300000
vt 0.200000 0.600000
vt 0.250000 1.000000
vt 0.200000 0.900000
vt 0.200000 0.200000
vt 0.150000 1.000000
vt 0.100000 0.900000
vt 0.100000 0.200000
vt 0.100000 0.500000
vt 0.100000 0.800000
vt 0.100000 0.100000
vt 0.100000 0.400000
vt 0.100000 0.700000
vt 0.150000 0.000000
vt 0.100000 0.300000
vt 0.100000 0.600000
vt 0.000000 0.600000
vt 0.050000 1.000000
vt 0.000000 0.900000
vt 0.000000 0.200000
vt 0.000000 0.500000
vt 0.000000 0.800000
vt 0.000000 0.100000
vt 0.000000 0.400000
vt 0.000000 0.700000
vt 0.050000 0.000000
vt 0.000000 0.300000
vt 0.950000 0.000000
vt 1.000000 0.100000
vt 0.900000 0.100000
vt 1.000000 0.400000
vt 0.900000 0.300000
vt 1.000000 0.300000
vt 1.000000 0.700000
vt 0.900000 0.600000
vt 1.000000 0.600000
vt 1.000000 0.900000
vt 0.950000 1.000000
vt 0.900000 0.900000
vt 0.900000 0.200000
vt 1.000000 0.200000
vt 0.900000 0.500000
vt 1.000000 0.500000
vt 0.900000 0.800000
vt 1.000000 0.800000
vt 0.900000 0.400000
vt 0.900000 0.700000
vt 0.800000 0.500000
vt 0.800000 0.400000
vt 0.800000 0.800000
vt 0.800000 0.700000
vt 0.850000 0.000000
vt 0.800000 0.100000
vt 0.800000 0.300000
vt 0.800000 0.600000
vt 0.850000 1.000000
vt 0.800000 0.900000
vt 0.800000 0.200000
vt 0.750000 0.000000
vt 0.750000 1.000000
vn -0.0508 -0.9864 0.1562
vn -0.2781 -0.4361 0.8559
vn -0.2781 0.4361 0.8559
vn -0.0508 0.9864 0.1562
vn -0.2239 -0.6892 0.6892
vn -0.3056 0.1490 0.9404
vn -0.1459 0.8815 0.4491
vn -0.1459 -0.8815 0.4491
vn -0.3056 -0.1490 0.9404
vn -0.2239 0.6892 0.6892
vn -0.7280 -0.4361 0.5290
vn -0.7280 0.4361 0.5290
vn -0.1329 0.9864 0.0966
vn -0.5862 -0.6892 0.4259
vn -0.8000 0.1490 0.5812
vn -0.3821 0.8815 0.2776
vn -0.3821 -0.8815 0.2776
vn -0.8000 -0.1490 0.5812
vn -0.5862 0.6892 0.4259
vn -0.1329 -0.9864 0.0966
vn -0.7246 0.6892 0.0000
vn -0.1643 -0.9864 0.0000
vn -0.8999 -0.4361 0.0000
vn -0.8999 0.4361 0.0000
vn -0.1643 0.9864 0.0000
vn -0.7246 -0.6892 0.0000
vn -0.9888 0.1490 0.0000
vn -0.4722 0.8815 0.0000
vn -0.4722 -0.8815 0.0000
vn -0.9888 -0.1490 0.0000
vn -0.3821 -0.8815 -0.2776
vn -0.8000 -0.1490 -0.5812
vn -0.5862 0.6892 -0.4259
vn -0.1329 -0.9864 -0.0966
vn -0.7280 -0.4361 -0.5290
vn -0.7280 0.4361 -0.5290
vn -0.1329 0.9864 -0.0966
vn -0.5862 -0.6892 -0.4259
vn -0.8000 0.1490 -0.5812
vn -0.3821 0.8815 -0.2776
vn -0.3056 0.1490 -0.9404
vn -0.1459 0.8815 -0.4491
vn -0.1459 -0.8815 -0.4491
vn -0.3056 -0.1490 -0.9404
vn -0.2239 0.6892 -0.6892
vn -0.0508 -0.9864 -0.1562
vn -0.2781 -0.4361 -0.8559
vn -0.2781 0.4361 -0.8559
vn -0.0508 0.9864 -0.1562
vn -0.2239 -0.6892 -0.6892
vn 0.0508 0.9864 -0.1562
vn 0.2239 -0.6892 -0.6892
vn 0.3056 0.1490 -0.9404
vn 0.1459 0.8815 -0.4491
vn 0.1459 -0.8815 -0.4491
vn 0.3056 -0.1490 -0.9404
vn 0.2239 0.6892 -0.6892
vn 0.0508 -0.9864 -0.1562
vn 0.2781 -0.4361 -0.8559
vn 0.2781 0.4361 -0.8559
vn 0.7280 0.4361 -0.5290
vn 0.1329 0.9864 -0.0966
vn 0.5862 -0.6892 -0.4259
vn 0.8000 0.1490 -0.5812
vn 0.3821 0.8815 -0.2776
vn 0.3821 -0.8815 -0.2776
vn 0.8000 -0.1490 -0.5812
vn 0.5862 0.6892 -0.4259
vn 0.1329 -0.9864 -0.0966
vn 0.7280 -0.4361 -0.5290
vn 0.1643 -0.9864 -0.0000
vn 0.8999 -0.4361 0.0000
vn 0.8999 0.4361 -0.0000
vn 0.1643 0.9864 0.0000
vn 0.7246 -0.6892 -0.0000
vn 0.9888 0.1490 -0.0000
vn 0.4722 0.8815 0.0000
vn 0.4722 -0.8815 0.0000
vn 0.9888 -0.1490 0.0000
vn 0.7246 0.6892 0.0000
vn 0.8000 -0.1490 0.5812
vn 0.5862 0.6892 0.4259
vn 0.1329 -0.9864 0.0966
vn 0.7280 -0.4361 0.5290
vn 0.7280 0.4361 0.5290
vn 0.1329 0.9864 0.0966
vn 0.5862 -0.6892 0.4259
vn 0.8000 0.1490 0.5812
vn 0.3821 0.8815 0.2776
vn 0.3821 -0.8815 0.2776
vn 0.1459 0.8815 0.4491
vn 0.1459 -0.8815 0.4491
vn 0.3056 -0.1490 0.9404
vn 0.2239 0.6892 0.6892
vn 0.0508 -0.9864 0.1562
vn 0.2781 -0.4361 0.8559
vn 0.2781 0.4361 0.8559
vn 0.0508 0.9864 0.1562
vn 0.2239 -0.6892 0.6892
vn 0.3056 0.1490 0.9404
usemtl None
s off
f 92/1/1 91/2/1 11/3/1
f 1/4/2 9/5/2 90/6/2
f 87/7/3 6/8/3 88/9/3
f 85/10/4 48/11/4 3/12/4
f 2/13/5 9/5/5 10/14/5
f 88/9/6 7/15/6 89/16/6
f 85/10/7 4/17/7 86/18/7
f 91/2/8 10/14/8 11/3/8
f 1/4/9 7/15/9 8/19/9
f 86/18/10 5/20/10 87/7/10
f 8/19/11 18/21/11 9/5/11
f 6/8/12 14/22/12 15/23/12
f 3/12/13 48/24/13 12/25/13
f 9/5/14 19/26/14 10/14/14
f 6/8/15 16/27/15 7/15/15
f 3/12/16 13/28/16 4/17/16
f 10/14/17 20/29/17 11/3/17
f 8/19/18 16/27/18 17/30/18
f 4/17/19 14/22/19 5/20/19
f 92/31/20 11/3/20 20/29/20
f 13/28/21 23/32/21 14/22/21
f 92/33/22 20/29/22 29/34/22
f 17/30/23 27/35/23 18/21/23
f 14/22/24 24/36/24 15/23/24
f 12/25/25 48/37/25 21/38/25
f 18/21/26 28/39/26 19/26/26
f 15/23/27 25/40/27 16/27/27
f 12/25/28 22/41/28 13/28/28
f 20/29/29 28/39/29 29/34/29
f 17/30/30 25/40/30 26/42/30
f 28/39/31 38/43/31 29/34/31
f 26/42/32 34/44/32 35/45/32
f 23/32/33 31/46/33 32/47/33
f 92/48/34 29/34/34 38/43/34
f 26/42/35 36/49/35 27/35/35
f 23/32/36 33/50/36 24/36/36
f 21/38/37 48/51/37 30/52/37
f 27/35/38 37/53/38 28/39/38
f 25/40/39 33/50/39 34/44/39
f 21/38/40 31/46/40 22/41/40
f 33/50/41 43/54/41 34/44/41
f 30/52/42 40/55/42 31/46/42
f 37/53/43 47/56/43 38/43/43
f 35/45/44 43/54/44 44/57/44
f 32/47/45 40/55/45 41/58/45
f 92/59/46 38/43/46 47/56/46
f 35/45/47 45/60/47 36/49/47
f 32/47/48 42/61/48 33/50/48
f 30/52/49 48/62/49 39/63/49
f 36/49/50 46/64/50 37/53/50
f 39/63/51 48/65/51 49/66/51
f 45/60/52 56/67/52 46/64/52
f 42/61/53 53/68/53 43/54/53
f 39/63/54 50/69/54 40/55/54
f 46/64/55 57/70/55 47/56/55
f 44/57/56 53/68/56 54/71/56
f 41/58/57 50/69/57 51/72/57
f 92/73/58 47/56/58 57/70/58
f 44/57/59 55/74/59 45/60/59
f 41/58/60 52/75/60 42/61/60
f 51/72/61 61/76/61 52/75/61
f 49/66/62 48/77/62 58/78/62
f 55/74/63 65/79/63 56/67/63
f 52/75/64 62/80/64 53/68/64
f 49/66/65 59/81/65 50/69/65
f 56/67/66 66/82/66 57/70/66
f 54/71/67 62/80/67 63/83/67
f 51/72/68 59/81/68 60/84/68
f 92/85/69 57/70/69 66/82/69
f 54/71/70 64/86/70 55/74/70
f 92/87/71 66/88/71 75/89/71
f 63/90/72 73/91/72 64/92/72
f 60/93/73 70/94/73 61/95/73
f 58/96/74 48/97/74 67/98/74
f 64/92/75 74/99/75 65/100/75
f 61/95/76 71/101/76 62/102/76
f 58/96/77 68/103/77 59/104/77
f 65/100/78 75/89/78 66/88/78
f 63/90/79 71/101/79 72/105/79
f 60/93/80 68/103/80 69/106/80
f 72/105/81 80/107/81 81/108/81
f 69/106/82 77/109/82 78/110/82
f 92/111/83 75/89/83 84/112/83
f 72/105/84 82/113/84 73/91/84
f 69/106/85 79/114/85 70/94/85
f 67/98/86 48/115/86 76/116/86
f 73/91/87 83/117/87 74/99/87
f 71/101/88 79/114/88 80/107/88
f 67/98/89 77/109/89 68/103/89
f 75/89/90 83/117/90 84/112/90
f 76/116/91 86/18/91 77/109/91
f 83/117/92 91/2/92 84/112/92
f 81/108/93 89/16/93 1/4/93
f 78/110/94 86/18/94 87/7/94
f 92/118/95 84/112/95 91/2/95
f 81/108/96 90/6/96 82/113/96
f 78/110/97 88/9/97 79/114/97
f 76/116/98 48/119/98 85/10/98
f 83/117/99 90/6/99 2/13/99
f 79/114/100 89/16/100 80/107/100
f 1/4/2 8/19/2 9/5/2
f 87/7/3 5/20/3 6/8/3
f 2/13/5 90/6/5 9/5/5
f 88/9/6 6/8/6 7/15/6
f 85/10/7 3/12/7 4/17/7
f 91/2/8 2/13/8 10/14/8
f 1/4/9 89/16/9 7/15/9
f 86/18/10 4/17/10 5/20/10
f 8/19/11 17/30/11 18/21/11
f 6/8/12 5/20/12 14/22/12
f 9/5/14 18/21/14 19/26/14
f 6/8/15 15/23/15 16/27/15
f 3/12/16 12/25/16 13/28/16
f 10/14/17 19/26/17 20/29/17
f 8/19/18 7/15/18 16/27/18
f 4/17/19 13/28/19 14/22/19
f 13/28/21 22/41/21 23/32/21
f 17/30/23 26/42/23 27/35/23
f 14/22/24 23/32/24 24/36/24
f 18/21/26 27/35/26 28/39/26
f 15/23/27 24/36/27 25/40/27
f 12/25/28 21/38/28 22/41/28
f 20/29/29 19/26/29 28/39/29
f 17/30/30 16/27/30 25/40/30
f 28/39/31 37/53/31 38/43/31
f 26/42/32 25/40/32 34/44/32
f 23/32/33 22/41/33 31/46/33
f 26/42/35 35/45/35 36/49/35
f 23/32/36 32/47/36 33/50/36
f 27/35/38 36/49/38 37/53/38
f 25/40/39 24/36/39 33/50/39
f 21/38/40 30/52/40 31/46/40
f 33/50/41 42/61/41 43/54/41
f 30/52/42 39/63/42 40/55/42
f 37/53/43 46/64/43 47/56/43
f 35/45/44 34/44/44 43/54/44
f 32/47/45 31/46/45 40/55/45
f 35/45/47 44/57/47 45/60/47
f 32/47/48 41/58/48 42/61/48
f 36/49/50 45/60/50 46/64/50
f 45/60/52 55/74/52 56/67/52
f 42/61/53 52/75/53 53/68/53
f 39/63/54 49/66/54 50/69/54
f 46/64/55 56/67/55 57/70/55
f 44/57/56 43/54/56 53/68/56
f 41/58/57 40/55/57 50/69/57
f 44/57/59 54/71/59 55/74/59
f 41/58/60 51/72/60 52/75/60
f 51/72/61 60/84/61 61/76/61
f 55/74/63 64/86/63 65/79/63
f 52/75/64 61/76/64 62/80/64
f 49/66/65 58/78/65 59/81/65
f 56/67/66 65/79/66 66/82/66
f 54/71/67 53/68/67 62/80/67
f 51/72/68 50/69/68 59/81/68
f 54/71/70 63/83/70 64/86/70
f 63/90/72 72/105/72 73/91/72
f 60/93/73 69/106/73 70/94/73
f 64/92/75 73/91/75 74/99/75
f 61/95/76 70/94/76 71/101/76
f 58/96/77 67/98/77 68/103/77
f 65/100/78 74/99/78 75/89/78
f 63/90/79 62/102/79 71/101/79
f 60/93/80 59/104/80 68/103/80
f 72/105/81 71/101/81 80/107/81
f 69/106/82 68/103/82 77/109/82
f 72/105/84 81/108/84 82/113/84
f 69/106/85 78/110/85 79/114/85
f 73/91/87 82/113/87 83/117/87
f 71/101/88 70/94/88 79/114/88
f 67/98/89 76/116/89 77/109/89
f 75/89/90 74/99/90 83/117/90
f 76/116/91 85/10/91 86/18/91
f 83/117/92 2/13/92 91/2/92
f 81/108/93 80/107/93 89/16/93
f 78/110/94 77/109/94 86/18/94
f 81/108/96 1/4/96 90/6/96
f 78/110/97 87/7/97 88/9/97
f 83/117/99 82/113/99 90/6/99
f 79/114/100 88/9/100 89/16/100
